<svg xmlns="http://www.w3.org/2000/svg" xml:space="preserve" width="1000" height="750" data-id="lg_9nLJtcZZj3wM2cXSl9" data-version="1"><path fill="#fff" stroke="transparent" d="M0 0h1000v750H0z"/><g data-padding="20"><g fill="#006f42"><path d="m305.036 409.879 10.62-16.133q5.332 3.011 10.83 5.423 5.497 2.426 11.399 4.09t12.402 2.546q6.501.868 13.841.868 8.853 0 15.084-1.153 6.216-1.168 10.141-3.206t5.707-4.868q1.798-2.83 1.798-6.156 0-5.333-4.464-8.448-4.464-3.101-13.751-3.101-4.09 0-8.613.524-4.509.54-9.137 1.169-4.614.629-9.108 1.153-4.478.54-8.433.54-6.606 0-12.657-1.693-6.067-1.693-10.74-5.093-4.674-3.386-7.445-8.479-2.756-5.077-2.756-11.863 0-4.014 1.093-7.984 1.094-3.954 3.52-7.564 2.412-3.61 6.247-6.711 3.835-3.116 9.257-5.377 5.437-2.262 12.567-3.55t16.238-1.289q6.59 0 13.241.734 6.666.72 12.972 2.037t12.148 3.176q5.842 1.842 10.875 4.104l-8.733 16.073q-4.149-1.813-8.927-3.355-4.764-1.543-9.976-2.667-5.213-1.138-10.77-1.797t-11.34-.66q-8.223 0-13.526 1.199-5.317 1.198-8.448 3.04-3.145 1.858-4.374 4.15t-1.228 4.554q0 4.403 3.97 7.19 3.954 2.8 12.058 2.8 3.265 0 7.504-.479 4.24-.464 8.913-1.033t9.541-1.034q4.869-.48 9.452-.48 8.673 0 15.354 1.948 6.695 1.947 11.22 5.557 4.508 3.625 6.845 8.733 2.321 5.123 2.321 11.46 0 8.477-3.924 15.113-3.925 6.621-11.19 11.175-7.25 4.553-17.48 6.905-10.246 2.352-22.798 2.352-8.284 0-16.208-1.034-7.909-1.033-15.159-2.95t-13.825-4.584q-6.561-2.667-12.148-5.872M434.35 379.98v-13.93h57.58v13.93Zm109.707 42.96v-80.693h-36.234v-17.465h92.376v17.465h-36.234v80.693Zm77.367 0v-98.158h83.584v17.465h-63.676v19.593h56.396v16.387h-56.396v27.322h64.994v17.39Zm107.011 0v-98.158h19.908v80.707h57.085v17.45Zm96.271 0v-98.158h19.907v80.707H901.7v17.45Z" font-family="Krona One" font-size="85.863"/><path d="M214.54 309.616H112.83c-8.025 0-14.53 6.505-14.53 14.53v101.708c0 8.025 6.505 14.53 14.53 14.53h101.71c8.025 0 14.53-6.505 14.53-14.53V324.146c0-8.025-6.505-14.53-14.53-14.53m-69.016 10.897h36.324v14.53h-36.324Zm-36.324 3.633a3.63 3.63 0 0 1 3.632-3.633h25.427v14.53h-29.06Zm108.973 101.708a3.63 3.63 0 0 1-3.633 3.633H112.831a3.63 3.63 0 0 1-3.632-3.633v-83.546h108.973Zm0-90.81h-29.06v-14.53h25.427a3.63 3.63 0 0 1 3.633 3.632Z"/><path d="M196.377 324.146h7.265v7.265h-7.265Zm-72.649 0h7.265v7.265h-7.265Zm29.06 0h21.794v7.265h-21.794Zm-36.325 25.427h94.444v7.265h-94.444Zm94.444 14.53h-94.444v58.119h94.444Zm-7.265 50.854h-79.914v-43.59h79.914Z"/><path d="m182.603 393.918-14.53 14.53-5.143-5.144 14.53-14.53Zm-16.041-16.041 5.144 5.129L149.91 404.8l-5.115-5.13Z"/></g><path fill="transparent" stroke="transparent" stroke-width="1.556" d="M83 307.315h834v135.37H83z"/></g></svg>